<svg id="Layer_1" data-name="Layer 1" xmlns="http://www.w3.org/2000/svg" xmlns:xlink="http://www.w3.org/1999/xlink" viewBox="0 0 580.41 136.06"><defs><style>.cls-1{fill:none;}.cls-2{fill:#fff;}.cls-3{clip-path:url(#clip-path);}.cls-4{fill:#dd390d;}.cls-5{clip-path:url(#clip-path-2);}.cls-6{clip-path:url(#clip-path-3);}</style><clipPath id="clip-path" transform="translate(-49.76 -20.42)"><rect class="cls-1" x="49.42" y="53.4" width="25.31" height="83.29"/></clipPath><clipPath id="clip-path-2" transform="translate(-49.76 -20.42)"><rect class="cls-1" x="81.14" y="20.38" width="25.63" height="136.14"/></clipPath><clipPath id="clip-path-3" transform="translate(-49.76 -20.42)"><rect class="cls-1" x="147.34" y="23.5" width="25.41" height="96.1"/></clipPath></defs><path class="cls-2" d="M227.16,51.37a26.28,26.28,0,0,1,14.78,4.34L239,62q-6.48-3.93-12.38-3.94a9.58,9.58,0,0,0-5.07,1.17,3.61,3.61,0,0,0-1.83,3.24,4.62,4.62,0,0,0,1.7,3.6,10.58,10.58,0,0,0,4.24,2.17c1.68.47,3.51,1.06,5.47,1.77a53.31,53.31,0,0,1,5.5,2.24,10.14,10.14,0,0,1,4.21,3.67A10.69,10.69,0,0,1,242.51,82,10.56,10.56,0,0,1,238,90.88q-4.46,3.3-11.48,3.3a25.92,25.92,0,0,1-17.29-6.71l3.07-6.14a24.16,24.16,0,0,0,7,4.54,18.86,18.86,0,0,0,7.28,1.6,10.79,10.79,0,0,0,5.84-1.33,4.33,4.33,0,0,0,2.06-3.81,4.59,4.59,0,0,0-1.7-3.63,10.41,10.41,0,0,0-4.2-2.17q-2.53-.7-5.51-1.7t-5.47-2.11a10.09,10.09,0,0,1-4.24-3.6A11,11,0,0,1,216,54.57Q220.21,51.38,227.16,51.37Z" transform="translate(-49.76 -20.42)"/><path class="cls-2" d="M267.22,57.64a23.79,23.79,0,0,1,31.9,0,20,20,0,0,1,6.48,15.18,20.29,20.29,0,0,1-6.48,15.25,23.67,23.67,0,0,1-31.9,0,20.37,20.37,0,0,1-6.44-15.25A20.08,20.08,0,0,1,267.22,57.64Zm16,.23a14.89,14.89,0,0,0-10.74,4.34A14.12,14.12,0,0,0,268,72.82a14.28,14.28,0,0,0,4.47,10.65,14.82,14.82,0,0,0,10.71,4.37,14.53,14.53,0,0,0,10.64-4.37,14.37,14.37,0,0,0,4.44-10.65,14.2,14.2,0,0,0-4.44-10.61A14.61,14.61,0,0,0,283.24,57.87Z" transform="translate(-49.76 -20.42)"/><path class="cls-2" d="M333.76,87.47h18.32V94H326.65V51.67h7.11Z" transform="translate(-49.76 -20.42)"/><path class="cls-2" d="M391.17,94h-7.38L366.94,51.67h7.68l13,34.37,13.19-34.37h7.4Z" transform="translate(-49.76 -20.42)"/><path class="cls-2" d="M457.66,58.07H434.57V69.49h20.66v6.4H434.57V87.54h23.79V94H427.47V51.67h30.19Z" transform="translate(-49.76 -20.42)"/><path class="cls-2" d="M517.17,94h-7L487.64,63.61V94h-7.11V51.67h7L510.16,82V51.67h7Z" transform="translate(-49.76 -20.42)"/><path class="cls-2" d="M560.52,51.5a22.72,22.72,0,0,1,8.71,1.74A21.38,21.38,0,0,1,576.57,58l-4.17,5.2a17.16,17.16,0,0,0-5.44-3.9,15.08,15.08,0,0,0-17.05,2.84,15,15,0,0,0,0,21.15,14.67,14.67,0,0,0,10.71,4.31,16.47,16.47,0,0,0,11.78-5l4.24,4.7A24.81,24.81,0,0,1,569,92.38a21.93,21.93,0,0,1-8.77,1.87,21.5,21.5,0,0,1-15.62-6.18,20.57,20.57,0,0,1-6.34-15.31,20.05,20.05,0,0,1,6.41-15.12A22,22,0,0,1,560.52,51.5Z" transform="translate(-49.76 -20.42)"/><path class="cls-2" d="M614.66,79.86V94h-7.07V80.13L591.84,51.67H599l12.08,20.59,11.85-20.59h7.24Z" transform="translate(-49.76 -20.42)"/><path class="cls-2" d="M358.28,124.33h-9.44V129h8.44v2.63h-8.44v4.77h9.74V139H345.93V121.73h12.35Z" transform="translate(-49.76 -20.42)"/><path class="cls-2" d="M376.31,130l6.3,9h-3.5l-4.67-6.51L369.8,139h-3.41l6.31-8.88-5.87-8.41h3.4l4.21,6,4.27-6h3.4Z" transform="translate(-49.76 -20.42)"/><path class="cls-2" d="M391.55,121.73h6.91a7.54,7.54,0,0,1,5,1.54,5.4,5.4,0,0,1,1.81,4.37,5.83,5.83,0,0,1-1.81,4.57,7.3,7.3,0,0,1-5,1.6h-4V139h-2.9Zm2.9,2.6v6.84h3.87c2.78,0,4.17-1.15,4.17-3.47s-1.39-3.37-4.17-3.37Z" transform="translate(-49.76 -20.42)"/><path class="cls-2" d="M426.68,124.33h-9.45V129h8.45v2.63h-8.45v4.77H427V139H414.33V121.73h12.35Z" transform="translate(-49.76 -20.42)"/><path class="cls-2" d="M447.67,139l-3.17-5.24a7.25,7.25,0,0,1-.8,0h-4.1V139h-2.91V121.73h7a7.82,7.82,0,0,1,5.14,1.54,5.39,5.39,0,0,1,1.84,4.37,6.28,6.28,0,0,1-.94,3.5,5.33,5.33,0,0,1-2.64,2.1L451,139Zm-8.07-7.85h4.1c2.8,0,4.21-1.15,4.21-3.47s-1.41-3.37-4.21-3.37h-4.1Z" transform="translate(-49.76 -20.42)"/><path class="cls-2" d="M472.52,124.33h-5.47V139h-2.94V124.33h-5.44v-2.6h13.85Z" transform="translate(-49.76 -20.42)"/><path class="cls-2" d="M486.85,121.6a10.71,10.71,0,0,1,6.07,1.8L491.68,126a9.6,9.6,0,0,0-5-1.64,3.85,3.85,0,0,0-2.11.5,1.5,1.5,0,0,0-.73,1.34,1.91,1.91,0,0,0,.7,1.47,4.56,4.56,0,0,0,1.74.9c.68.18,1.43.42,2.23.7s1.54.59,2.24.9a4,4,0,0,1,1.73,1.5,4.52,4.52,0,0,1,.67,2.47,4.35,4.35,0,0,1-1.84,3.67,7.65,7.65,0,0,1-4.67,1.34,10.7,10.7,0,0,1-7.07-2.74l1.27-2.54a9.47,9.47,0,0,0,2.87,1.91,7.93,7.93,0,0,0,3,.63,4.5,4.5,0,0,0,2.37-.53,1.8,1.8,0,0,0,.86-1.57,1.88,1.88,0,0,0-.7-1.5,4.09,4.09,0,0,0-1.7-.87c-.69-.2-1.45-.44-2.27-.7a21.17,21.17,0,0,1-2.23-.87,4.16,4.16,0,0,1-1.74-1.47,4.57,4.57,0,0,1,1-5.94A7.37,7.37,0,0,1,486.85,121.6Z" transform="translate(-49.76 -20.42)"/><g class="cls-3"><path class="cls-4" d="M73,135.72H49.76V66.08L73,53.63Z" transform="translate(-49.76 -20.42)"/></g><g class="cls-5"><path class="cls-4" d="M106.11,156.48H82.91V32.88l23.2-12.46Z" transform="translate(-49.76 -20.42)"/></g><path class="cls-4" d="M139.27,144H116.05V66.08l23.22-12.45Z" transform="translate(-49.76 -20.42)"/><g class="cls-6"><path class="cls-4" d="M172.41,119.12H149.19V37l23.22-12.45Z" transform="translate(-49.76 -20.42)"/></g></svg>